<?xml version="1.0" encoding="UTF-8"?><svg id="Layer_1" xmlns="http://www.w3.org/2000/svg" viewBox="0 0 25 25"><path d="m12.5,3.5C7.53,3.5,3.5,7.53,3.5,12.5s4.03,9,9,9,9-4.03,9-9S17.47,3.5,12.5,3.5Zm0,1.75c3.93,0,7.14,3.15,7.24,7.06-2.14.89-4.4,1.37-6.74,1.37-2.68,0-5.33-.62-7.72-1.79.31-3.71,3.43-6.64,7.22-6.64Zm0,14.5c-3.53,0-6.48-2.54-7.12-5.89,2.39,1.03,4.99,1.57,7.62,1.57,2.25,0,4.43-.38,6.52-1.13-.8,3.13-3.64,5.45-7.01,5.45Z"/><path d="m7.97,11.42c.09.03.19.05.29.05.36,0,.7-.23.83-.59.54-1.56,2.01-2.61,3.66-2.61.48,0,.88-.39.88-.88s-.39-.88-.88-.88c-2.4,0-4.53,1.52-5.31,3.78-.16.46.08.96.54,1.11Z"/></svg>