<?xml version="1.0" encoding="UTF-8"?><svg id="Layer_1" xmlns="http://www.w3.org/2000/svg" viewBox="0 0 25 25"><path d="m6.65,9.15c.07.02.14.04.21.04.26,0,.5-.16.59-.42.39-1.11,1.44-1.86,2.63-1.86.35,0,.63-.28.63-.63s-.28-.63-.63-.63c-1.72,0-3.25,1.09-3.82,2.7-.11.33.06.68.39.8Z"/><path d="m18.15,9.69c-.59-1.15-1.53-2.09-2.68-2.69-1.04-2.04-3.16-3.44-5.6-3.44-3.48,0-6.29,2.82-6.29,6.3,0,2.45,1.4,4.56,3.43,5.61.6,1.15,1.54,2.08,2.69,2.68,1.05,2.02,3.14,3.41,5.57,3.41,3.48,0,6.29-2.82,6.29-6.3,0-2.43-1.39-4.52-3.4-5.57Zm-8.29-4.55c2.54,0,4.61,2.03,4.7,4.56-1.39.54-2.84.83-4.36.83-1.74,0-3.45-.4-5.02-1.12.24-2.39,2.23-4.27,4.68-4.27Zm-4.51,6.06c1.54.59,3.19.89,4.86.89,1.4,0,2.77-.22,4.08-.63-.66,1.82-2.38,3.14-4.43,3.14s-3.93-1.44-4.51-3.4Zm4.51,4.97c3.48,0,6.29-2.82,6.29-6.3,0-.12-.01-.24-.02-.35.71.82,1.14,1.88,1.14,3.05,0,2.61-2.12,4.73-4.72,4.73-1.16,0-2.22-.44-3.04-1.14.11,0,.22.02.34.02Zm5.39,3.82c-1.17,0-2.23-.44-3.05-1.15.12,0,.23.03.36.03,3.48,0,6.29-2.82,6.29-6.3,0-.13-.02-.24-.03-.37.71.82,1.15,1.89,1.15,3.07,0,2.61-2.12,4.73-4.72,4.73Z"/></svg>