<?xml version="1.0" encoding="UTF-8"?><svg id="Layer_1" xmlns="http://www.w3.org/2000/svg" viewBox="0 0 25 25"><defs><style>.cls-1{fill:#fff;}.cls-2{fill:#b37851;}.cls-3{fill:#ad4444;}</style></defs><path class="cls-3" d="m17.78,21.23l-2.52-12.12-2.76.59-2.76-.59-2.52,12.12c-.09.44.39.77.76.53l4.51-2.88,4.51,2.88c.38.24.85-.09.76-.53Z"/><circle class="cls-2" cx="12.5" cy="9.11" r="7"/><path class="cls-1" d="m12.49,13.85c-.46,0-.88-.12-1.27-.36s-.69-.56-.92-.96-.34-.84-.34-1.31v-.58s.02-.06.05-.06h1.46s.06.02.06.06v.58c0,.29.09.53.27.74.18.2.41.3.69.3.3,0,.54-.11.72-.32.17-.21.26-.45.26-.72v-.35c0-.27-.08-.51-.25-.73-.17-.22-.38-.33-.64-.33h-.51s-.06-.02-.06-.07v-1.46s.03-.05.06-.05h.51c.23,0,.44-.09.62-.27.18-.18.27-.42.27-.71v-.18c0-.28-.09-.51-.28-.71-.19-.19-.42-.29-.7-.29s-.5.1-.68.29c-.19.2-.28.43-.28.71v.62s-.02.06-.05.06h-1.46s-.05-.02-.05-.06v-.69c0-.48.12-.9.36-1.27.24-.37.55-.67.94-.89s.8-.33,1.23-.33c.47,0,.9.12,1.28.34.38.23.69.54.92.92.23.38.34.8.34,1.26v.21c0,.38-.06.71-.19.99s-.3.54-.53.79c.23.26.4.54.53.85s.2.63.2.96v.39c0,.49-.12.93-.34,1.33-.23.4-.54.71-.92.95-.39.23-.81.35-1.28.35Z"/></svg>