<?xml version="1.0" encoding="UTF-8"?><svg id="Layer_1" xmlns="http://www.w3.org/2000/svg" viewBox="0 0 25 25"><defs><style>.cls-1{fill:#fff;}.cls-2{fill:#ad4444;}.cls-3{fill:#a8a8a8;}</style></defs><path class="cls-2" d="m17.78,21.23l-2.52-12.12-2.76.59-2.76-.59-2.52,12.12c-.09.44.39.77.76.53l4.51-2.88,4.51,2.88c.38.24.85-.09.76-.53Z"/><circle class="cls-3" cx="12.5" cy="9.11" r="7"/><path class="cls-1" d="m10.08,13.71s-.06-.02-.06-.07v-1.47s0-.03.03-.05l3.21-4.41c.06-.08.11-.18.15-.31.04-.12.06-.24.06-.33,0-.25-.09-.48-.27-.7-.18-.21-.41-.32-.69-.32s-.5.1-.68.3c-.19.2-.28.46-.28.77v.64s-.02.06-.06.06h-1.46s-.05-.02-.05-.06v-.64c0-.48.12-.93.36-1.33.24-.4.55-.72.94-.95.39-.23.8-.35,1.24-.35.47,0,.89.12,1.27.36.38.24.69.55.92.94.23.39.34.81.34,1.26,0,.29-.05.58-.15.87s-.24.55-.41.78l-2.47,3.39h2.92s.05.02.05.05v1.47s-.02.07-.05.07h-4.85Z"/></svg>