<?xml version="1.0" standalone="no"?>
<!DOCTYPE svg PUBLIC "-//W3C//DTD SVG 20010904//EN"
 "http://www.w3.org/TR/2001/REC-SVG-20010904/DTD/svg10.dtd">
<svg version="1.0" xmlns="http://www.w3.org/2000/svg"
 width="564.000000pt" height="564.000000pt" viewBox="0 0 564.000000 564.000000"
 preserveAspectRatio="xMidYMid meet">
<metadata>
Created by potrace 1.14, written by Peter Selinger 2001-2017
</metadata>
<g transform="translate(0.000000,564.000000) scale(0.100000,-0.100000)"
fill="#000000" stroke="none">
<path d="M2088 4945 l-3 -444 -300 200 c-165 110 -308 206 -318 214 -9 8 -21
15 -25 15 -5 0 -17 8 -28 18 -31 27 -60 41 -70 34 -6 -4 -23 -28 -39 -54 -17
-27 -33 -48 -37 -48 -5 0 -8 -6 -8 -13 0 -7 -9 -23 -20 -35 -11 -12 -20 -24
-20 -26 0 -3 -36 -59 -80 -124 -80 -118 -89 -143 -52 -156 21 -7 49 -25 76
-48 11 -10 28 -20 38 -24 10 -3 18 -10 18 -15 0 -5 7 -9 15 -9 8 0 15 -4 15
-10 0 -5 6 -10 13 -10 8 0 22 -9 32 -20 10 -11 21 -20 25 -20 6 0 143 -89 230
-150 13 -9 55 -37 99 -65 111 -71 221 -150 219 -156 -4 -9 -407 -279 -418
-279 -5 0 -10 -4 -12 -8 -1 -5 -87 -64 -190 -132 -104 -69 -188 -128 -188
-132 0 -4 56 -92 125 -195 69 -103 125 -191 125 -195 0 -4 5 -8 10 -8 6 0 10
-6 10 -14 0 -8 6 -16 12 -18 11 -4 219 129 422 270 26 17 51 32 56 32 4 0 10
3 12 8 4 10 97 72 107 72 5 0 11 4 13 8 4 10 130 93 135 89 1 -2 3 -202 3
-445 l1 -441 264 1 265 0 0 67 c0 36 1 236 1 444 0 207 1 377 4 377 4 0 149
-95 190 -125 11 -7 52 -34 90 -59 39 -25 81 -54 94 -63 13 -10 35 -25 50 -33
14 -8 28 -17 31 -20 15 -15 100 -70 108 -70 6 0 12 -3 14 -7 5 -12 95 -73 107
-73 6 0 11 -4 11 -10 0 -5 6 -10 14 -10 8 0 16 -4 18 -10 6 -18 23 5 165 218
l142 212 -404 268 c-222 147 -406 272 -408 278 -5 11 122 104 142 104 5 0 11
4 13 8 4 11 94 72 106 72 6 0 12 4 14 9 2 4 104 75 228 157 124 82 230 153
235 157 6 4 25 18 43 31 27 20 31 26 20 38 -7 8 -17 21 -23 30 -5 9 -46 70
-90 135 -44 65 -84 125 -90 135 -25 40 -79 118 -82 118 -4 0 -506 -333 -513
-340 -3 -3 -30 -21 -60 -40 -30 -19 -61 -40 -68 -47 -6 -6 -21 -15 -32 -18
-11 -3 -20 -10 -20 -14 0 -4 -11 -13 -25 -19 l-24 -11 0 402 c0 221 -1 421 -1
445 l0 42 -265 0 -265 0 -2 -445z"/>
<path d="M5225 3281 c-88 -43 -223 -109 -300 -146 -77 -37 -223 -108 -325
-158 -300 -145 -495 -240 -655 -317 -82 -39 -204 -99 -269 -131 -65 -32 -125
-59 -132 -59 -8 0 -14 -4 -14 -10 0 -5 -4 -10 -9 -10 -5 0 -103 -46 -218 -101
-284 -138 -534 -260 -680 -330 -67 -32 -126 -59 -132 -59 -6 0 -11 -4 -11 -10
0 -5 -4 -10 -10 -10 -10 0 -151 -68 -592 -284 l-248 -121 36 -70 c59 -114 149
-251 243 -372 118 -153 303 -327 476 -450 77 -54 241 -153 254 -153 5 0 14 -7
21 -15 6 -8 15 -14 18 -13 4 1 30 -8 57 -21 136 -63 316 -128 338 -123 4 1 17
-2 27 -8 11 -6 39 -13 62 -16 24 -4 54 -11 67 -15 13 -5 26 -8 28 -5 3 2 18 0
35 -5 56 -16 170 -24 333 -24 205 0 286 9 460 50 103 24 286 82 295 94 3 3 12
7 20 9 17 3 182 83 190 92 4 4 37 23 95 54 11 6 24 17 28 24 4 6 13 12 19 12
9 0 153 105 184 134 99 93 170 165 205 207 24 29 51 61 59 70 33 39 45 54 77
100 18 27 33 51 33 54 0 3 15 26 34 52 98 140 215 439 272 698 10 42 22 128
34 225 8 72 6 429 -4 480 -2 14 -7 45 -10 70 -3 25 -8 56 -11 70 -3 14 -8 39
-11 55 -30 173 -168 566 -198 565 -6 -1 -83 -36 -171 -79z"/>
<path d="M432 1650 c-71 -17 -167 -60 -199 -89 -10 -9 -31 -26 -47 -39 -52
-40 -114 -132 -147 -215 -26 -66 -32 -100 -35 -172 -3 -89 16 -209 36 -229 6
-6 10 -16 10 -23 0 -8 16 -39 36 -70 196 -307 629 -349 877 -84 37 39 109 150
113 171 0 3 6 25 14 50 40 135 29 269 -34 402 -109 231 -373 357 -624 298z"/>
</g>
</svg>
